<svg width="28" height="28" viewBox="0 0 28 28"  fill="none" xmlns="http://www.w3.org/2000/svg">
  <g clip-path="url(#clip0_505_1529)">
    <path
      d="M14 28C21.732 28 28 21.732 28 14C28 6.26801 21.732 0 14 0C6.26801 0 0 6.26801 0 14C0 21.732 6.26801 28 14 28Z"
      fill="currentColor" />
    <path
      d="M14 26.25C20.7655 26.25 26.25 20.7655 26.25 14C26.25 7.23451 20.7655 1.75 14 1.75C7.23451 1.75 1.75 7.23451 1.75 14C1.75 20.7655 7.23451 26.25 14 26.25Z"
      fill="currentColor" />
    <path fill-rule="evenodd" clip-rule="evenodd"
      d="M5.68669 25.2656C4.70614 24.5408 3.82357 23.6911 3.0625 22.7399V21H7.21875V25.2656H5.68669Z" fill="currentColor" />
    <path fill-rule="evenodd" clip-rule="evenodd"
      d="M18.0755 25.5557L14.2188 19.5502L16.8024 15.2006L21.979 23.2953C20.8404 24.2736 19.52 25.0462 18.0755 25.5557ZM22.9166 22.3999L17.5915 13.8558L19.8449 10.0625L25.362 18.5876C24.7869 20.0107 23.9521 21.301 22.9166 22.3999Z"
      fill="hsl(var(--b1))" />
    <path fill-rule="evenodd" clip-rule="evenodd"
      d="M4.12433 23.9232C3.11999 22.9236 2.26652 21.7725 1.60107 20.5072L2.64643 18.9028L8.23671 10.2479C8.94053 9.10035 10.474 8.73069 11.8976 8.75077L13.5684 8.79481L4.12433 23.9232ZM8.56137 26.9043C7.31444 26.3782 6.15966 25.6765 5.12796 24.8303L14.8467 8.81078L19.2501 8.79481L9.31349 25.6302L8.56137 26.9043Z"
      fill="hsl(var(--b1))" />
  </g>
  <defs>
    <clipPath id="clip0_505_1529">
      <rect width="100%" height="100%" fill="currentColor" />
    </clipPath>
  </defs>
</svg>
