<svg viewBox="0 0 22 16" fill="none" xmlns="http://www.w3.org/2000/svg">
  <path
    d="M11 3.5C13.1875 3.5 15.2188 2.3125 16.3125 0.40625C16.4688 0.1875 16.6875 0 17 0C17.25 0 17.5 0.15625 17.625 0.375C18.0312 1.03125 18.4688 1.6875 18.9375 2.25C19.4375 2.8125 19.9375 3.21875 20.5 3.40625C20.875 3.53125 21.0938 3.96875 20.9375 4.375C20.8125 4.75 20.375 4.96875 19.9688 4.8125C19.0938 4.5 18.4062 3.90625 17.8125 3.25C17.7812 3.21875 17.75 3.1875 17.75 3.15625V7.5H20.25C20.6562 7.5 21 7.84375 21 8.25C21 8.6875 20.6562 9 20.25 9H1.75C1.3125 9 1 8.6875 1 8.25C1 7.84375 1.3125 7.5 1.75 7.5H4.25V3.15625C4.21875 3.1875 4.1875 3.21875 4.15625 3.25C3.5625 3.90625 2.875 4.5 2 4.8125C1.59375 4.96875 1.15625 4.75 1.03125 4.375C0.875 3.96875 1.09375 3.53125 1.46875 3.40625C2.03125 3.21875 2.53125 2.8125 3.03125 2.25C3.5 1.6875 3.9375 1.03125 4.34375 0.375C4.46875 0.15625 4.71875 0 5 0C5.28125 0 5.5 0.1875 5.65625 0.40625C6.75 2.3125 8.78125 3.5 11 3.5ZM7.25 4.03125C6.6875 3.71875 6.1875 3.34375 5.75 2.90625V7.5H7.25V4.03125ZM10.25 4.96875C9.71875 4.9375 9.21875 4.8125 8.75 4.65625V7.5H10.25V4.96875ZM13.25 4.65625C12.75 4.8125 12.25 4.9375 11.75 4.96875V7.5H13.25V4.65625ZM16.25 2.90625C15.7812 3.34375 15.2812 3.71875 14.75 4.03125V7.5H16.25V2.90625ZM1 11.25C1 10.8438 1.3125 10.5 1.75 10.5H2.25C4.03125 10.5 5.5 11.9688 5.5 13.75V14.5H7C7 12.3125 8.78125 10.5 11 10.5C13.1875 10.5 15 12.3125 15 14.5H16.5V13.75C16.5 11.9688 17.9375 10.5 19.75 10.5H20.25C20.6562 10.5 21 10.8438 21 11.25C21 11.6875 20.6562 12 20.25 12H19.75C18.7812 12 18 12.8125 18 13.75V14.5C18 15.3438 17.3125 16 16.5 16H14.9375C14.125 16 13.5 15.375 13.5 14.5625V14.5C13.5 13.125 12.375 12 11 12C9.59375 12 8.5 13.125 8.5 14.5V14.5625C8.5 15.375 7.84375 16 7.03125 16H5.5C4.65625 16 4 15.3438 4 14.5V13.75C4 12.8125 3.1875 12 2.25 12H1.75C1.3125 12 1 11.6875 1 11.25Z"
    fill="#68778D" />
</svg>
