<svg viewBox="0 0 31 30" fill="currentColor" xmlns="http://www.w3.org/2000/svg">
  <path fill-rule="evenodd" clip-rule="evenodd"
    d="M15.063 0C23.3478 0 30.063 6.71514 30.063 15C30.063 23.2849 23.3478 30 15.063 30C6.77813 30 0.0629883 23.2849 0.0629883 15C0.0629883 6.71514 6.77813 0 15.063 0Z" />
  <path
    d="M8.30698 15.0001L8.3178 18.9665L11.688 20.9497V23.2718L6.34544 20.1384V13.8403L8.30698 15.0001ZM8.30698 11.0338V13.3451L6.34424 12.184V9.87273L8.30698 8.71167L10.2793 9.87273L8.30698 11.0338ZM13.0954 9.87273L15.0582 8.71167L17.0305 9.87273L15.0582 11.0338L13.0954 9.87273Z"
    fill="hsl(var(--b1))" />
  <path
    d="M9.7251 18.1444V15.8222L11.6878 16.9833V19.2946L9.7251 18.1444ZM13.0953 21.7814L15.058 22.9424L17.0304 21.7814V24.0927L15.058 25.2537L13.0953 24.0927V21.7814ZM19.8453 9.87273L21.808 8.71167L23.7804 9.87273V12.184L21.808 13.3451V11.0338L19.8453 9.87273ZM21.808 18.9665L21.8188 15.0001L23.7816 13.8391V20.1372L18.439 23.2706V20.9484L21.808 18.9665Z"
    fill="hsl(var(--b1))" />
  <path d="M20.4007 18.1441L18.438 19.2944V16.9831L20.4007 15.822V18.1441Z" fill="hsl(var(--b1))" />
  <path
    d="M20.4006 11.8557L20.4114 14.1778L17.0316 16.161V20.137L15.0688 21.2872L13.1061 20.137V16.161L9.7263 14.1778V11.8557L11.6975 10.6947L15.0568 12.6874L18.4366 10.6947L20.409 11.8557H20.4006ZM9.7251 7.89057L15.058 4.74634L20.4006 7.89057L18.4378 9.05163L15.058 7.05884L11.6878 9.05163L9.7251 7.89057Z"
    fill="hsl(var(--b1))" />
</svg>
