<svg t="1671429852646" class="icon" viewBox="0 0 1024 1024" version="1.1" xmlns="http://www.w3.org/2000/svg">
  <path
    d="M423.338667 962.517333c-143.274667 0-333.738667-16.085333-333.738667-155.178666 0-119.381333 152.832-220.245333 333.738667-220.245334s333.738667 100.437333 333.738666 219.349334c0 156.074667-251.178667 156.074667-333.738666 156.074666z m0-311.424c-154.410667 0-269.738667 82.517333-269.738667 156.245334 0 60.501333 90.752 91.178667 269.738667 91.178666s269.738667-31.018667 269.738666-92.074666c0-73.344-115.328-155.349333-269.738666-155.349334zM423.338667 510.549333H421.973333a223.445333 223.445333 0 0 1-158.762666-66.389333 223.36 223.36 0 0 1-65.28-159.104A225.664 225.664 0 0 1 423.338667 59.733333c124.288 0 225.408 101.12 225.408 225.408s-101.12 225.408-225.408 225.408z m0-386.816a161.578667 161.578667 0 0 0-161.408 161.408 159.872 159.872 0 0 0 46.677333 113.92 159.786667 159.786667 0 0 0 113.450667 47.488l1.28 32v-32c89.002667 0 161.408-72.405333 161.408-161.408S512.341333 123.733333 423.338667 123.733333zM816.256 549.930667a32 32 0 0 1-32-32v-171.093334a32 32 0 0 1 64 0v171.093334a32 32 0 0 1-32 32z"
    p-id="1054"></path>
  <path d="M903.594667 464.384h-174.506667a32 32 0 0 1 0-64h174.506667a32 32 0 0 1 0 64z" p-id="1055">
  </path>
</svg>
