<svg viewBox="0 0 15 18" version="1.1" xmlns="http://www.w3.org/2000/svg">
  <path
    d="M16.5311 4.396L14.9373 2.80225C14.6561 2.521 14.2811 2.3335 13.8748 2.3335H8.49984C7.65609 2.3335 6.99984 3.021 6.99984 3.8335V5.3335H4.49984C3.65609 5.3335 2.99984 6.021 2.99984 6.8335V16.8335C2.99984 17.6772 3.65609 18.3335 4.49984 18.3335H11.4998C12.3123 18.3335 12.9998 17.6772 12.9998 16.8335V15.3335H15.4998C16.3123 15.3335 16.9998 14.6772 16.9998 13.8335V5.4585C16.9998 5.05225 16.8123 4.67725 16.5311 4.396ZM11.3123 16.8335H4.68734C4.56234 16.8335 4.49984 16.771 4.49984 16.646V7.021C4.49984 6.92725 4.56234 6.8335 4.68734 6.8335H6.99984V13.8335C6.99984 14.6772 7.65609 15.3335 8.49984 15.3335H11.4998V16.646C11.4998 16.771 11.4061 16.8335 11.3123 16.8335ZM15.3123 13.8335H8.68734C8.56234 13.8335 8.49984 13.771 8.49984 13.646V4.021C8.49984 3.92725 8.56234 3.8335 8.68734 3.8335H11.9998V6.5835C11.9998 7.021 12.3123 7.3335 12.7498 7.3335H15.4998V13.646C15.4998 13.771 15.4061 13.8335 15.3123 13.8335ZM15.4998 5.8335H13.4998V3.8335H13.7811C13.8436 3.8335 13.8748 3.86475 13.9061 3.896L15.4373 5.42725C15.4686 5.4585 15.4998 5.48975 15.4998 5.55225V5.8335Z" />
</svg>