<svg viewBox="0 0 32 33" fill="none" xmlns="http://www.w3.org/2000/svg">
  <mask id="mask0_386_6134" style="mask-type:alpha" maskUnits="userSpaceOnUse" x="0" y="0" width="32" height="33">
    <rect y="0.050415" width="32" height="32" fill="white" />
  </mask>
  <g mask="url(#mask0_386_6134)">
    <path
      d="M13.6704 7.89624L14.0416 13.4162L14.2259 16.1906C14.2279 16.4759 14.2726 16.7594 14.3588 17.0318C14.5814 17.5606 15.1168 17.8966 15.6994 17.8731L24.5756 17.2925C24.96 17.2862 25.3312 17.4299 25.6075 17.6922C25.8378 17.9107 25.9864 18.1966 26.0334 18.5041L26.0491 18.6907C25.6818 23.777 21.9462 28.0194 16.8704 29.1145C11.7946 30.2095 6.58971 27.8962 4.08151 23.4303C3.35842 22.1329 2.90677 20.7069 2.75307 19.2358C2.68887 18.8003 2.66061 18.3605 2.66854 17.9205C2.66061 12.4674 6.54386 7.75307 11.9797 6.61655C12.6339 6.51467 13.2753 6.86101 13.5376 7.45783C13.6055 7.59604 13.6503 7.74407 13.6704 7.89624Z"
      fill="white" />
    <path opacity="0.4"
      d="M29.3335 13.1334L29.3241 13.1769L29.2972 13.2401L29.3009 13.4136C29.2871 13.6433 29.1983 13.8644 29.0455 14.043C28.8861 14.229 28.6685 14.3557 28.4289 14.4049L28.2828 14.4249L18.0417 15.0885C17.7011 15.1221 17.3619 15.0122 17.1087 14.7864C16.8975 14.598 16.7625 14.3438 16.7244 14.07L16.0371 3.84379C16.0251 3.80921 16.0251 3.77173 16.0371 3.73715C16.0464 3.45527 16.1705 3.18883 16.3816 2.99735C16.5925 2.80587 16.8731 2.70531 17.1601 2.71813C23.24 2.87281 28.3499 7.24476 29.3335 13.1334Z"
      fill="white" />
  </g>
</svg>
