<svg viewBox="0 0 18 14" xmlns="http://www.w3.org/2000/svg">
  <path
    d="M14.8343 1.75523C16.7199 4.54717 17.6511 7.6964 17.303 11.3219C17.3015 11.3372 17.2936 11.3513 17.2811 11.3606C15.8532 12.4165 14.4697 13.0573 13.1057 13.4823C13.0951 13.4855 13.0837 13.4853 13.0732 13.4817C13.0627 13.4782 13.0535 13.4714 13.047 13.4623C12.7319 13.0207 12.4456 12.5552 12.1947 12.0663C12.1803 12.0375 12.1935 12.0028 12.2231 11.9915C12.6779 11.8189 13.1103 11.6121 13.5262 11.3673C13.559 11.3479 13.5611 11.3007 13.5308 11.278C13.4425 11.212 13.3551 11.1426 13.2714 11.0733C13.2557 11.0604 13.2347 11.0579 13.2169 11.0665C10.5166 12.3223 7.55857 12.3223 4.82633 11.0665C4.80859 11.0585 4.78751 11.0613 4.77228 11.0739C4.6888 11.1432 4.60115 11.212 4.51371 11.278C4.48344 11.3007 4.48595 11.3479 4.51892 11.3673C4.93485 11.6075 5.36727 11.8189 5.82139 11.9923C5.85082 12.0037 5.8648 12.0375 5.85019 12.0663C5.60476 12.5558 5.31843 13.0213 4.99746 13.4629C4.98348 13.4808 4.96052 13.489 4.93882 13.4823C3.58125 13.0573 2.19781 12.4165 0.76992 11.3606C0.758024 11.3513 0.749468 11.3366 0.748215 11.3213C0.457294 8.18527 1.0502 5.00997 3.21458 1.7546C3.21979 1.74599 3.22772 1.73926 3.23691 1.73527C4.30188 1.24304 5.44282 0.880914 6.6353 0.674104C6.65701 0.670741 6.67871 0.680829 6.68998 0.700165C6.83732 0.962881 7.00574 1.29979 7.11968 1.57512C8.37666 1.38176 9.65324 1.38176 10.9365 1.57512C11.0505 1.30567 11.213 0.962881 11.3597 0.700165C11.365 0.690573 11.3731 0.682888 11.3829 0.678208C11.3927 0.673528 11.4037 0.672091 11.4144 0.674104C12.6075 0.881544 13.7485 1.24367 14.8126 1.73527C14.822 1.73926 14.8297 1.74599 14.8343 1.75523ZM7.75871 7.71784C7.77186 6.79077 7.10069 6.02364 6.25819 6.02364C5.42257 6.02364 4.75788 6.78404 4.75788 7.71784C4.75788 8.65143 5.43572 9.41184 6.25819 9.41184C7.09401 9.41184 7.75871 8.65143 7.75871 7.71784ZM13.3062 7.71784C13.3194 6.79077 12.6482 6.02364 11.8059 6.02364C10.9701 6.02364 10.3054 6.78404 10.3054 7.71784C10.3054 8.65143 10.9833 9.41184 11.8059 9.41184C12.6482 9.41184 13.3062 8.65143 13.3062 7.71784Z" />
</svg>
