<?xml version="1.0" encoding="UTF-8"?>
<svg   viewBox="0 0 302 257" fill="none" xmlns="http://www.w3.org/2000/svg" >
    <g clipPath="url(#clip0_670_546)">
      <path
        d="M133.664 32.3506C134.953 33.1239 136.242 33.1239 137.659 32.6084C145.135 30.2884 152.998 29.3862 160.603 29.2573C173.75 29.1284 186.51 31.8351 198.884 36.8616C210.227 41.5016 219.894 48.7192 228.659 57.0968C234.846 63.0256 240.131 69.9855 244.126 77.7187C244.9 79.2654 245.415 80.9409 247.606 81.1987C247.478 82.6164 246.06 82.8742 245.157 83.3897C237.295 87.9008 229.046 91.7674 221.054 96.1495C220.023 96.6651 218.347 96.9228 218.476 98.2117C218.605 99.7583 220.41 99.6294 221.441 100.145C223.632 100.918 225.952 101.563 228.143 102.465C230.85 103.625 233.041 102.852 235.104 101.047C241.42 95.5051 247.993 90.0918 254.309 84.4208C254.953 83.9053 255.598 83.2608 256.5 83.3897C257.274 83.6475 257.402 84.1631 257.402 84.8075C254.309 90.2207 249.798 94.474 245.931 99.3717C244.642 101.047 243.224 102.723 241.806 104.269C240.388 105.816 240.646 106.847 242.708 107.492C246.962 108.909 251.216 110.327 255.469 111.745C256.629 112.131 258.176 112.131 258.434 113.807C255.985 113.549 255.598 114.838 255.727 116.9C257.789 139.842 251.344 160.722 238.068 179.153C226.597 195.006 211.516 206.348 192.826 212.792C181.097 216.787 168.981 218.721 156.607 217.947C136.886 216.787 119.099 210.214 103.631 197.97C85.586 183.535 73.9855 164.975 69.2164 142.162C66.8963 130.562 66.6385 118.962 68.9586 107.234C69.732 103.367 70.5053 99.5006 71.7943 95.7628C72.4388 93.9584 71.9232 93.1851 69.732 93.1851C64.3184 93.314 59.0337 93.314 53.6201 93.1851C52.589 93.1851 51.4289 93.5718 50.5267 92.6696C51.5578 91.5096 52.8468 91.6385 54.1357 91.6385C62.2561 91.6385 70.3764 91.6385 78.4968 91.6385C80.9458 91.6385 83.137 92.2829 85.0704 93.7007C86.6172 94.8606 88.2928 95.8917 89.8395 96.9228C90.9996 97.6961 91.9018 97.5673 91.9018 95.8917C92.0307 92.7985 93.7064 91.7674 96.6709 91.6385C101.182 91.3807 103.245 89.3185 103.373 84.6786C103.502 79.7809 103.373 74.8832 103.502 69.9855C103.502 68.5678 103.373 67.0211 104.276 65.6034C105.049 64.9589 105.822 65.0878 106.725 65.2167C111.236 65.6034 115.618 65.4745 119.872 63.6701C120.774 63.2834 121.934 62.7679 122.708 64.0567C122.965 72.4344 122.965 80.6831 122.837 89.0607C122.837 101.047 123.739 112.905 123.739 124.762C123.739 126.309 123.868 127.985 123.223 129.531C122.965 130.047 122.579 130.433 121.934 129.918C120.645 127.856 121.29 125.536 121.161 123.345C121.032 120.251 121.161 117.158 121.161 113.678C118.067 117.029 114.845 119.607 112.396 122.958C112.009 123.731 112.138 124.505 112.138 125.149C112.138 143.451 112.138 161.624 112.138 179.926C112.138 182.246 112.138 184.695 113.943 186.499C115.618 187.788 117.552 188.175 119.743 188.175C149.002 188.175 178.261 188.175 207.52 188.175C209.583 188.175 211.516 187.788 213.321 186.628C215.254 184.566 215.254 181.988 215.254 179.41C214.867 162.913 215.254 146.415 215.125 129.918C215.125 127.598 216.027 125.278 215.383 122.958C212.547 120.122 209.583 117.287 206.747 114.451C205.716 113.42 204.685 112.518 204.427 111.1C203.911 102.078 204.298 92.9273 204.169 83.9053C204.169 80.6831 204.298 77.4609 204.04 74.3677C203.911 72.9499 202.88 72.1766 201.978 71.2744C196.306 65.6034 190.635 59.9324 185.093 54.3902C184.19 53.488 183.288 52.5858 181.87 52.4569C167.95 52.0703 154.029 52.4569 140.237 52.328C138.433 52.328 136.628 52.5858 134.824 51.8125C133.664 51.0392 133.793 50.0081 134.05 48.977C135.21 44.2082 135.082 39.4394 133.664 34.7995C133.148 33.7684 133.019 32.995 133.664 32.3506Z"
        fill="#EFF1FA"
      />
      <path
        d="M104.791 65.8611C104.791 72.3055 104.791 78.6209 104.662 85.0652C104.662 90.0918 101.956 92.9273 96.9287 92.6696C93.7064 92.5407 92.8041 93.8295 93.0619 96.7939C93.1908 97.6961 93.5775 98.985 92.5463 99.3717C91.5152 99.7583 90.7418 98.7272 90.0973 98.2117C84.9415 93.8295 79.2702 92.154 72.4388 92.6696C65.2207 93.1851 57.8737 92.7984 50.6556 92.7984C46.6598 91.5096 44.8553 88.6741 44.9842 84.5497C45.1131 77.2032 44.9842 69.7277 44.9842 62.3812C44.9842 56.968 47.8199 54.1324 53.3624 54.1324C65.3496 54.1324 77.3368 54.1324 89.324 54.1324C93.1908 52.7147 97.0576 52.7147 100.796 54.2613C105.307 56.0657 106.725 60.8346 104.791 65.8611Z"
        fill="#855FF1"
      />
      <path
        d="M104.791 65.861C104.791 64.7011 104.662 63.5411 104.662 62.3811C104.534 57.0967 101.827 54.2612 96.542 54.2612C94.0931 54.2612 91.644 54.2612 89.1951 54.1324C86.8749 48.7191 85.7149 43.177 86.875 37.2482C88.9373 27.195 97.0576 19.333 106.983 17.6574C117.036 15.9819 127.348 21.0085 132.504 30.0305C132.89 30.8039 133.277 31.5772 133.664 32.2216C136.113 38.4082 135.984 44.5947 134.179 50.9102C134.308 52.5857 133.406 53.7457 132.633 55.0346C132.246 55.8079 131.215 56.4523 131.215 57.0967C131.215 63.0255 125.93 62.1233 122.579 63.7989C116.907 66.3766 110.978 67.4077 104.791 65.861Z"
        fill="#75C8F6"
      />
      <path
        d="M256.5 83.7763C249.54 89.7051 242.451 95.6339 235.619 101.82C233.17 104.012 231.108 105.043 228.014 103.496C225.308 102.207 222.343 101.563 219.507 100.532C218.476 100.145 216.93 100.016 216.93 98.5983C216.93 97.1805 218.347 96.7938 219.379 96.2783C228.272 91.6384 237.166 86.9985 246.189 82.3585C246.704 82.1008 247.22 81.7141 247.864 81.3275C254.051 78.2342 260.238 75.012 266.425 71.9187C267.456 71.4032 268.487 70.501 269.647 71.4032C270.679 72.1765 270.292 73.3365 270.163 74.3676C268.359 86.8696 266.554 99.3716 264.621 111.745C264.105 114.967 263.718 115.096 258.563 113.936C253.02 112.002 247.478 109.94 241.935 108.136C239.228 107.234 239.099 106.331 240.904 104.269C246.446 97.8249 251.731 91.3806 257.145 84.8074C257.789 84.4207 257.402 83.6474 257.918 83.2607C257.274 83.2607 256.887 83.6474 256.5 83.7763Z"
        fill="#6F71F1"
      />
      <path
        d="M279.572 91.1229C278.67 98.985 277.639 107.492 276.737 115.998C276.221 120.122 275.705 124.247 275.448 128.371C275.19 131.464 273.385 131.98 271.065 131.336C267.327 130.176 263.589 128.758 259.851 127.34C258.176 126.696 257.274 125.536 258.047 123.86C258.691 122.313 260.238 122.442 261.656 122.958C263.847 123.731 266.167 124.376 268.359 125.149C270.292 125.922 271.194 125.536 271.323 123.345C272.354 112.26 273.514 101.305 274.674 90.2207C274.803 89.3185 274.932 88.5452 275.19 87.7719C275.448 86.2252 276.479 85.5808 278.026 85.8386C279.572 85.9674 279.83 87.1274 279.83 88.4163C279.572 89.0607 279.572 89.7052 279.572 91.1229Z"
        fill="#F8E298"
      />
      <path
        d="M291.56 210.472C285.888 210.472 281.377 205.832 281.506 200.161C281.506 194.619 286.275 189.85 291.817 189.979C297.231 190.108 302 195.005 302 200.419C302 205.832 297.231 210.472 291.56 210.472Z"
        fill="#7AC7F2"
      />
      <path
        d="M163.181 16.8841C158.798 16.8841 155.318 13.2753 155.318 8.89318C155.318 4.12437 158.669 0.773315 163.309 0.773315C167.692 0.773315 171.43 4.63991 171.301 9.02206C171.301 13.0175 167.305 16.8841 163.181 16.8841Z"
        fill="#E469B6"
      />
      <path
        d="M57.3581 19.4619C60.1938 19.4619 63.4161 22.6841 63.4161 25.5196C63.4161 28.3551 60.1938 31.5773 57.3581 31.5773C54.3935 31.5773 51.3 28.2262 51.3 25.2618C51.3 22.1685 54.1357 19.4619 57.3581 19.4619Z"
        fill="#B8D4F1"
      />
      <path
        d="M285.244 143.709C288.466 143.58 291.173 146.286 291.173 149.509C291.302 152.86 288.724 155.566 285.63 155.695C282.279 155.824 279.572 153.117 279.443 149.766C279.443 146.415 282.021 143.709 285.244 143.709Z"
        fill="#E866B7"
      />
      <path
        d="M32.4815 152.086C28.8724 152.086 26.1656 149.38 26.2945 145.9C26.2945 142.42 29.1302 139.713 32.6104 139.713C35.9616 139.713 38.6684 142.42 38.6684 145.771C38.6684 149.251 35.9616 152.086 32.4815 152.086Z"
        fill="#7172EA"
      />
      <path
        d="M8.24928 96.0206C8.24928 98.4694 6.44475 100.532 4.25355 100.403C2.19123 100.403 -0.257765 98.0827 2.41771e-05 96.0206C0.257813 93.7006 1.80455 92.2828 4.25355 92.154C6.57365 91.8962 8.24928 93.7006 8.24928 96.0206Z"
        fill="#F8E299"
      />
      <path
        d="M230.979 0C233.557 0.257773 234.975 1.54664 235.104 3.99549C235.233 6.18656 233.041 8.37763 230.85 8.37763C228.659 8.37763 226.597 6.05767 226.726 3.8666C227.112 1.41775 228.659 0.128887 230.979 0Z"
        fill="#8864EB"
      />
      <path
        d="M54.7802 200.548C54.6514 202.997 53.3624 204.414 50.9134 204.672C48.7222 204.801 46.531 202.739 46.4021 200.548C46.4021 198.486 48.5933 196.166 50.7845 196.294C53.1046 196.552 54.5225 197.97 54.7802 200.548Z"
        fill="#8864EC"
      />
      <path
        d="M71.7943 211.245C71.4076 212.921 70.3764 213.823 68.7008 213.694C67.1541 213.565 66.1229 212.663 66.2518 210.988C66.3807 209.183 67.5408 208.41 69.3453 208.539C70.892 208.668 71.6654 209.57 71.7943 211.245Z"
        fill="#F7E3A2"
      />
      <path
        d="M122.708 63.7989C124.512 62.3811 126.317 60.7056 128.895 61.2211C129.41 61.35 130.055 61.2211 129.926 60.4478C129.023 56.1945 133.019 54.2612 134.179 50.9102C149.26 50.9102 164.469 50.9102 179.55 50.9102C180.71 50.9102 182.128 50.3946 183.159 51.5546C184.835 54.7768 183.804 58.2567 184.061 61.6078C184.319 67.1499 187.928 71.2743 193.342 71.6609C195.662 71.7898 197.982 71.6609 200.431 71.7898C201.849 71.7898 203.267 71.9187 204.427 72.692C205.458 73.5942 205.071 74.8831 205.071 76.0431C205.071 88.0295 205.071 100.016 205.071 112.002C206.231 113.807 206.102 115.869 206.102 117.802C206.102 121.282 206.231 124.762 205.974 128.242C205.716 130.175 204.427 131.207 202.88 132.109C194.115 137.522 185.608 143.064 176.843 148.477C174.523 149.766 172.461 151.442 170.141 152.731C165.501 155.308 160.989 155.308 156.607 152.344C154.545 150.926 152.482 149.766 150.42 148.477C142.557 143.193 134.308 138.424 126.446 133.14C125.028 132.238 123.223 131.722 122.837 129.789C122.579 109.167 121.805 88.674 122.192 68.0521C122.063 66.7632 121.805 65.2166 122.708 63.7989Z"
        fill="#FEFEFE"
      />
      <path
        d="M150.549 147.962C152.869 149.38 155.06 150.668 157.38 152.086C161.505 154.664 165.501 154.793 169.625 152.344C171.945 150.926 174.265 149.508 176.714 148.091C178.261 147.446 179.163 148.477 180.066 149.38C188.444 157.628 196.178 166.522 204.169 175.157C207.134 178.25 210.227 181.215 212.805 184.695C213.449 185.468 214.481 186.112 214.094 187.401C212.676 188.948 210.872 189.463 208.938 189.463C178.777 189.463 148.615 189.463 118.454 189.463C116.392 189.463 114.716 188.819 113.298 187.401C112.912 186.241 113.814 185.597 114.458 184.952C119.356 179.539 124.254 174.255 129.281 168.97C135.21 162.655 141.011 156.211 146.94 149.895C147.713 148.606 148.615 147.189 150.549 147.962Z"
        fill="#FF7FB4"
      />
      <path
        d="M150.549 147.962C147.842 148.735 146.553 151.055 144.749 152.86C137.144 160.979 129.668 169.099 122.192 177.348C119.227 180.699 116.134 183.921 113.169 187.272C111.623 185.983 111.107 184.179 111.107 182.117C111.107 162.784 111.107 143.451 111.107 124.118C111.107 123.345 110.849 122.313 111.881 121.927C113.943 124.118 116.65 125.278 119.227 126.824C120.388 127.598 121.548 128.242 122.192 129.531C122.45 129.66 122.579 129.918 122.837 130.047C131.472 135.589 140.237 141.131 148.873 146.673C149.389 147.06 149.904 147.446 150.549 147.962Z"
        fill="#F661A0"
      />
      <path
        d="M213.965 187.272C209.969 182.761 206.102 178.25 202.107 173.868C194.76 165.877 187.155 158.015 179.679 150.153C178.777 149.251 178.003 148.091 176.586 148.091C184.835 142.806 193.084 137.651 201.204 132.367C202.493 131.464 204.04 130.949 204.942 129.531C206.489 127.34 208.809 126.309 211 125.149C212.547 124.247 213.965 123.216 215.254 121.927C216.93 122.571 216.414 123.989 216.414 125.278C215.641 143.451 216.027 161.624 216.156 179.797C216.285 182.246 216.543 185.21 213.965 187.272Z"
        fill="#F661A0"
      />
      <path
        d="M204.298 72.821C200.818 72.821 197.467 72.821 193.986 72.821C187.671 72.821 183.159 68.1811 183.03 61.8656C183.03 58.3857 183.03 55.0346 183.03 51.5547C190.506 58.3857 197.595 65.4744 204.298 72.821Z"
        fill="#C7CDE3"
      />
      <path
        d="M215.254 121.798C215.383 122.7 215.125 123.344 214.223 123.86C211.129 125.664 208.036 127.598 205.071 129.402C205.071 123.602 205.071 117.802 205.071 112.131C208.938 114.709 211.774 118.705 215.254 121.798Z"
        fill="#EEB3CB"
      />
      <path
        d="M122.063 129.402C119.356 127.856 116.65 126.18 113.943 124.505C112.912 123.86 111.494 123.473 111.881 121.798C114.974 118.447 118.196 115.225 121.29 111.874C121.548 112.003 121.805 112.131 122.063 112.26C122.063 118.06 122.063 123.731 122.063 129.402Z"
        fill="#EEB3CB"
      />
      <path
        d="M236.522 115.225C236.522 109.425 236.522 109.425 242.064 111.358C245.673 112.518 245.673 112.518 243.482 115.74C242.451 117.158 241.42 118.447 240.388 119.865C239.744 120.767 239.099 121.669 237.811 121.153C236.522 120.767 236.522 119.607 236.522 118.447C236.522 117.287 236.522 116.256 236.522 115.225Z"
        fill="#7374EA"
      />
      <path
        d="M256.5 83.7764C257.145 82.7453 258.305 82.1008 259.723 81.3275C259.078 83.003 258.176 84.0341 257.016 84.9363C257.016 84.4208 256.887 84.0341 256.5 83.7764Z"
        fill="#C7C6F5"
      />
      <path
        d="M89.324 77.332C87.3906 77.0742 85.8438 75.6565 85.9727 73.2076C85.9727 70.6299 87.5195 69.2122 89.9685 69.2122C92.4175 69.2122 93.9642 70.7588 94.222 73.2076C94.3509 75.2698 92.0308 77.332 89.324 77.332Z"
        fill="#F9F5FD"
      />
      <path
        d="M73.9855 77.332C72.0521 77.0743 70.5054 75.7854 70.3765 73.2077C70.3765 70.6299 71.7943 69.2122 74.2433 69.0833C76.4345 68.8255 78.7546 71.1455 78.6257 73.3365C78.6257 75.3987 76.5634 77.332 73.9855 77.332Z"
        fill="#F8F4FC"
      />
      <path
        d="M59.4204 69.0832C61.4828 69.4699 63.0295 70.7588 63.2873 73.2076C63.4162 75.2698 61.0961 77.5898 58.9049 77.332C56.327 77.2031 55.038 75.6565 55.038 73.0787C55.038 70.8877 56.9714 68.9544 59.4204 69.0832Z"
        fill="#F9F5FD"
      />
      <path
        d="M104.147 51.2968C105.565 48.7191 104.018 46.3991 102.471 43.9503C100.538 40.7281 100.151 37.506 102.6 34.4127C102.729 34.2838 102.729 34.1549 102.729 34.1549C104.276 32.9949 101.827 29.3861 103.889 30.0305C107.24 31.1905 111.236 30.0305 113.943 32.9949C114.845 33.8971 115.747 34.9282 116.263 35.9593C117.552 38.5371 119.356 40.5992 122.192 41.3726C123.094 41.6303 124.126 42.1459 124.126 43.3059C124.126 44.337 123.094 44.8525 122.321 45.3681C117.294 48.3325 112.396 51.168 107.369 54.0035C106.596 54.519 105.694 55.0346 104.662 54.3901C103.889 53.7457 104.147 52.7146 104.147 51.2968Z"
        fill="#FDFEFE"
      />
      <path
        d="M118.583 49.8792C119.356 49.8792 119.872 50.1369 120.001 50.7814C120.259 52.328 119.485 53.488 118.325 54.2613C117.165 55.0346 115.876 55.0346 114.716 54.1324C114.201 53.7457 113.814 53.1013 114.458 52.5858C115.747 51.5547 117.165 50.7814 118.583 49.8792Z"
        fill="#E3F7FC"
      />
      <path
        d="M291.817 205.961C288.208 205.961 286.017 203.899 286.017 200.29C286.017 197.068 288.595 194.361 291.817 194.361C294.911 194.361 297.489 196.939 297.618 200.032C297.618 203.254 295.04 205.961 291.817 205.961Z"
        fill="#FBFEFE"
      />
      <path
        d="M157.896 249.009C157.896 244.369 161.118 241.018 165.63 241.018C170.012 241.018 173.879 244.498 173.879 248.751C174.008 253.262 170.399 257.129 165.887 257.129C161.376 257.129 157.896 253.52 157.896 249.009Z"
        fill="#999AEA"
      />
      <path
        d="M169.625 249.009C169.368 251.2 168.207 252.618 165.758 252.618C163.438 252.618 162.278 251.2 162.021 249.138C161.763 247.333 164.083 244.885 166.016 245.142C168.207 245.271 169.239 246.818 169.625 249.009Z"
        fill="#FAFAFD"
      />
      <path
        d="M163.309 12.502C160.86 11.9864 159.314 10.8264 159.572 8.37758C159.829 6.18651 161.247 4.76875 163.438 4.89764C165.758 5.02653 167.176 6.57317 167.047 9.02201C166.919 11.2131 165.243 12.2442 163.309 12.502Z"
        fill="#FCF4FB"
      />
      <path
        d="M32.2236 143.709C33.5126 143.838 34.4148 144.482 34.4148 145.9C34.4148 147.06 33.6415 147.962 32.4814 147.962C31.0636 148.091 30.2902 147.189 30.2902 145.9C30.2902 144.611 31.0636 143.966 32.2236 143.709Z"
        fill="#E5E3FA"
      />
      <path
        d="M163.181 125.536C154.674 125.536 146.295 125.536 137.788 125.536C136.242 125.536 134.179 125.922 134.308 123.473C134.437 121.411 135.984 121.025 137.788 121.025C154.674 121.025 171.559 121.025 188.444 121.025C190.248 121.025 191.924 121.282 191.924 123.344C192.053 125.793 189.991 125.407 188.444 125.407C180.066 125.536 171.688 125.536 163.181 125.536Z"
        fill="#BAD5F0"
      />
      <path
        d="M163.438 102.465C171.945 102.465 180.324 102.465 188.831 102.465C190.248 102.465 191.795 102.207 192.182 104.14C192.569 106.332 190.635 106.46 189.346 106.847C188.444 107.105 187.413 106.976 186.51 106.976C170.914 106.976 155.318 106.976 139.593 106.976C138.948 106.976 138.304 107.105 137.659 106.976C136.113 106.718 134.437 106.46 134.566 104.527C134.566 102.336 136.37 102.594 137.917 102.594C146.295 102.465 154.802 102.465 163.438 102.465Z"
        fill="#BBD4EF"
      />
      <path
        d="M163.567 86.9985C171.945 86.9985 180.195 86.9985 188.573 86.9985C189.991 86.9985 191.795 86.6118 192.053 88.8029C192.311 90.994 190.377 90.8651 188.959 91.1229C187.799 91.3806 186.639 91.3806 185.479 91.3806C170.656 91.3806 155.705 91.3806 140.882 91.3806C139.335 91.3806 137.917 91.1229 136.499 90.8651C135.21 90.6073 134.179 90.0918 134.308 88.674C134.437 87.1274 135.597 86.9985 136.886 86.9985C143.073 86.9985 149.26 86.9985 155.447 86.9985C158.154 86.9985 160.86 86.9985 163.567 86.9985Z"
        fill="#BBD4EE"
      />
      <path
        d="M160.989 94.7317C168.594 94.7317 176.199 94.7317 183.804 94.7317C185.35 94.7317 187.284 94.7317 187.284 96.5362C187.413 98.7272 185.35 98.5983 183.675 98.5983C168.336 98.5983 153.127 98.5983 137.788 98.5983C136.371 98.5983 134.437 98.985 134.308 96.7939C134.179 94.3451 136.242 94.7317 137.788 94.7317C145.522 94.7317 153.256 94.7317 160.989 94.7317Z"
        fill="#B8D4F0"
      />
      <path
        d="M156.865 117.802C150.42 117.802 144.104 117.802 137.659 117.802C136.242 117.802 134.308 118.06 134.308 115.869C134.308 113.807 135.855 113.291 137.659 113.291C150.549 113.291 163.567 113.291 176.457 113.291C178.132 113.291 179.679 113.678 179.679 115.482C179.679 117.287 178.132 117.674 176.457 117.674C170.012 117.802 163.438 117.802 156.865 117.802Z"
        fill="#BCD5EE"
      />
      <path
        d="M151.58 63.7989C156.349 63.7989 161.247 63.7989 166.016 63.7989C167.434 63.7989 168.981 63.9278 168.981 65.8611C168.981 67.6655 167.563 67.6655 166.145 67.6655C156.478 67.6655 146.94 67.6655 137.273 67.6655C135.855 67.6655 134.308 67.6655 134.308 65.6033C134.437 63.5411 135.984 63.7989 137.402 63.7989C142.171 63.7989 146.811 63.7989 151.58 63.7989Z"
        fill="#B8D4F0"
      />
      <path
        d="M145.909 75.3987C142.944 75.3987 139.98 75.3987 136.886 75.3987C135.468 75.3987 134.308 75.012 134.308 73.3365C134.437 71.7899 135.597 71.5321 136.886 71.5321C142.944 71.5321 149.131 71.5321 155.189 71.5321C156.607 71.5321 157.896 72.1765 157.896 73.5943C158.025 75.3987 156.478 75.3987 155.189 75.3987C152.096 75.5276 149.002 75.5276 145.909 75.3987Z"
        fill="#BAD4EE"
      />
      <path
        d="M241.42 28.6128H235.362C234.588 28.6128 234.073 27.9683 234.073 27.3239C234.073 26.5506 234.717 26.035 235.362 26.035H241.42C242.193 26.035 242.709 26.6795 242.709 27.3239C242.837 27.9683 242.193 28.6128 241.42 28.6128Z"
        fill="#F2ABD8"
      />
      <path
        d="M237.037 30.2883V24.2306C237.037 23.4573 237.682 22.9418 238.326 22.9418C239.099 22.9418 239.615 23.5862 239.615 24.2306V30.2883C239.615 31.0616 238.971 31.5772 238.326 31.5772C237.682 31.7061 237.037 31.0616 237.037 30.2883Z"
        fill="#F2ABD8"
      />
      <path
        d="M257.016 13.7909L265.781 5.02662C266.812 3.99552 268.616 3.99552 269.647 5.02662C270.679 6.05771 270.679 7.86212 269.647 8.89322L260.883 17.6575C259.851 18.6886 258.047 18.6886 257.016 17.6575C255.985 16.4975 255.985 14.822 257.016 13.7909Z"
        fill="#EEF5FC"
      />
      <path
        d="M260.883 5.02662L269.647 13.7909C270.679 14.822 270.679 16.6264 269.647 17.6575C268.616 18.6886 266.812 18.6886 265.781 17.6575L257.016 8.89322C255.985 7.86212 255.985 6.05771 257.016 5.02662C258.047 3.99552 259.851 3.99552 260.883 5.02662Z"
        fill="#EEF5FC"
      />
      <path
        d="M225.823 235.089L218.219 227.485C217.703 226.969 217.703 226.067 218.219 225.552C218.734 225.036 219.636 225.036 220.152 225.552L227.757 233.156C228.272 233.672 228.272 234.574 227.757 235.089C227.241 235.605 226.339 235.605 225.823 235.089Z"
        fill="#EEF5FC"
      />
      <path
        d="M218.09 233.156L225.694 225.552C226.21 225.036 227.112 225.036 227.628 225.552C228.143 226.067 228.143 226.969 227.628 227.485L220.023 235.089C219.507 235.605 218.605 235.605 218.09 235.089C217.574 234.574 217.574 233.672 218.09 233.156Z"
        fill="#EEF5FC"
      />
    </g>
    <defs>
      <clipPath id="clip0_670_546">
        <rect   fill="white" />
      </clipPath>
    </defs>
  </svg>
