<svg viewBox="0 0 1024 1024" version="1.1" xmlns="http://www.w3.org/2000/svg" p-id="15939">
  <path
    d="M262 202c-33.138 0-60 26.862-60 60v500c0 33.138 26.862 60 60 60h500c33.138 0 60-26.862 60-60V262c0-33.138-26.862-60-60-60H262z m0-90h500c82.842 0 150 67.158 150 150v500c0 82.842-67.158 150-150 150H262c-82.842 0-150-67.158-150-150V262c0-82.842 67.158-150 150-150z"
    p-id="15940"></path>
  <path d="M402 402m-90 0a90 90 0 1 0 180 0 90 90 0 1 0-180 0Z" p-id="15941"></path>
  <path
    d="M400.874 657.596l114.268 49.728c25.2 10.968 54.63 3.412 71.428-18.34l127.944-165.656c20.256-26.226 57.936-31.066 84.16-10.812A60 60 0 0 1 822 560.002V764.16c0 33.138-26.862 60-60 60H202v-62l140.446-98.646a60 60 0 0 1 58.428-5.916z"
    p-id="15942"></path>
</svg>