<svg   viewBox="0 0 48 39" xmlns="http://www.w3.org/2000/svg">
    <path d="M44.1687 4.48052L48 0.804997V0H34.7312L25.275 23.6132L14.5187 0H0.60625V0.804997L5.08125 6.20908C5.51875 6.60846 5.74375 7.19505 5.6875 7.78163V29.0173C5.825 29.7849 5.58125 30.5649 5.04375 31.1203L0 37.2545V38.047H14.2875V37.242L9.25 31.1265C8.70625 30.5712 8.44375 29.7974 8.55625 29.0236V10.6522L21.1 38.0595H22.5562L33.3438 10.6522V32.4869C33.3438 33.061 33.3438 33.1796 32.9688 33.5602L29.0875 37.3231V38.1281H47.9125V37.3231L44.1687 33.6476C43.8437 33.398 43.675 32.9799 43.7437 32.5743V5.55385C43.675 5.14823 43.8437 4.73014 44.1687 4.48052V4.48052Z" />
  </svg>
