<svg viewBox="0 0 31 30" fill="none" xmlns="http://www.w3.org/2000/svg">
  <circle cx="15.063" cy="15" r="15" fill="currentColor" />
  <path
    d="M20.1552 11.5962C19.7862 11.3742 19.3065 11.3742 18.9006 11.5962L16.0224 13.2981L14.0667 14.408L11.1884 16.1099C10.8195 16.3319 10.3397 16.3319 9.93384 16.1099L7.64601 14.778C7.27701 14.556 7.01871 14.1491 7.01871 13.705V11.0782C7.01871 10.6342 7.24011 10.2273 7.64601 10.0053L9.89694 8.71036C10.2659 8.48837 10.7456 8.48837 11.1516 8.71036L13.4025 10.0053C13.7715 10.2273 14.0298 10.6342 14.0298 11.0782V12.7801L15.9855 11.6332V9.93129C15.9855 9.48731 15.7641 9.08034 15.3582 8.85835L11.1884 6.41649C10.8195 6.1945 10.3397 6.1945 9.93384 6.41649L5.6903 8.85835C5.28439 9.08034 5.06299 9.48731 5.06299 9.93129V14.852C5.06299 15.296 5.28439 15.7029 5.6903 15.9249L9.93384 18.3668C10.3028 18.5888 10.7826 18.5888 11.1884 18.3668L14.0667 16.7019L16.0224 15.555L18.9006 13.8901C19.2696 13.6681 19.7493 13.6681 20.1552 13.8901L22.4061 15.185C22.7752 15.407 23.0335 15.814 23.0335 16.2579V18.8848C23.0335 19.3287 22.8121 19.7357 22.4061 19.9577L20.1552 21.2897C19.7862 21.5116 19.3065 21.5116 18.9006 21.2897L16.6497 19.9947C16.2807 19.7727 16.0224 19.3657 16.0224 18.9217V17.2199L14.0667 18.3668V20.0687C14.0667 20.5127 14.2881 20.9196 14.694 21.1416L18.9375 23.5835C19.3065 23.8055 19.7862 23.8055 20.1921 23.5835L24.4357 21.1416C24.8047 20.9196 25.063 20.5127 25.063 20.0687V15.148C25.063 14.704 24.8416 14.297 24.4357 14.0751L20.1552 11.5962Z"
    fill="hsl(var(--b1))" />
</svg>
