<svg viewBox="10 10 20 20" fill="none" xmlns="http://www.w3.org/2000/svg">
  <path
    d="M21.91 18.09C22.4165 18.5965 22.7011 19.2836 22.7011 20C22.7011 20.7164 22.4165 21.4034 21.91 21.91C21.4034 22.4165 20.7164 22.7011 20 22.7011C19.2836 22.7011 18.5965 22.4165 18.09 21.91C17.5834 21.4034 17.2988 20.7164 17.2988 20C17.2988 19.6453 17.3687 19.294 17.5044 18.9663C17.6402 18.6386 17.8392 18.3408 18.09 18.09C18.3408 17.8392 18.6386 17.6402 18.9663 17.5044C19.294 17.3687 19.6453 17.2988 20 17.2988C20.7164 17.2988 21.4034 17.5834 21.91 18.09"
    stroke="currentColor" stroke-width="1.5" stroke-linecap="round" stroke-linejoin="round" />
  <path
    d="M13.2502 20C13.2502 20.297 13.2772 20.594 13.3132 20.882L11.7252 22.124C11.5549 22.2574 11.4384 22.4478 11.3973 22.6602C11.3561 22.8725 11.393 23.0926 11.5012 23.28L12.9132 25.723C13.0213 25.9101 13.1933 26.0519 13.3975 26.1224C13.6018 26.193 13.8246 26.1875 14.0252 26.107L15.4472 25.536C15.5856 25.4824 15.735 25.4634 15.8824 25.4807C16.0299 25.4979 16.1709 25.5509 16.2932 25.635C16.5132 25.781 16.7412 25.915 16.9772 26.035C17.2472 26.172 17.4432 26.417 17.4862 26.717L17.7032 28.23C17.7662 28.672 18.1452 29 18.5912 29H21.4082C21.6241 29 21.8327 28.9221 21.9959 28.7807C22.159 28.6393 22.2656 28.4437 22.2962 28.23L22.5132 26.718C22.5368 26.5712 22.5958 26.4323 22.685 26.3134C22.7741 26.1944 22.8909 26.0989 23.0252 26.035C23.2602 25.917 23.4872 25.784 23.7062 25.639C23.8288 25.554 23.9704 25.5002 24.1185 25.4825C24.2667 25.4647 24.4169 25.4834 24.5562 25.537L25.9752 26.107C26.1757 26.1873 26.3985 26.1927 26.6027 26.1221C26.8069 26.0516 26.9789 25.9099 27.0872 25.723L28.4992 23.28C28.6073 23.0926 28.6442 22.8725 28.6031 22.6602C28.5619 22.4478 28.4455 22.2574 28.2752 22.124L26.6872 20.882C26.7232 20.594 26.7502 20.297 26.7502 20C26.7502 19.703 26.7232 19.406 26.6872 19.118L28.2752 17.876C28.4455 17.7426 28.5619 17.5522 28.6031 17.3398C28.6442 17.1275 28.6073 16.9074 28.4992 16.72L27.0872 14.277C26.979 14.0899 26.8071 13.9481 26.6028 13.8776C26.3986 13.807 26.1757 13.8125 25.9752 13.893L24.5562 14.463C24.4169 14.5163 24.2667 14.5349 24.1186 14.5172C23.9705 14.4994 23.8289 14.4458 23.7062 14.361C23.4873 14.2156 23.2599 14.0833 23.0252 13.965C22.8909 13.9011 22.7741 13.8056 22.685 13.6866C22.5958 13.5677 22.5368 13.4288 22.5132 13.282L22.2972 11.77C22.2666 11.5563 22.16 11.3607 21.9969 11.2193C21.8337 11.0779 21.6251 11 21.4092 11H18.5922C18.3763 11 18.1676 11.0779 18.0045 11.2193C17.8414 11.3607 17.7347 11.5563 17.7042 11.77L17.4862 13.284C17.4625 13.4303 17.4039 13.5687 17.3153 13.6874C17.2267 13.8061 17.1107 13.9017 16.9772 13.966C16.7412 14.086 16.5132 14.221 16.2932 14.366C16.1705 14.4497 16.0293 14.5024 15.8818 14.5194C15.7342 14.5365 15.5847 14.5175 15.4462 14.464L14.0252 13.893C13.8246 13.8125 13.6018 13.807 13.3975 13.8776C13.1933 13.9481 13.0213 14.0899 12.9132 14.277L11.5012 16.72C11.393 16.9074 11.3561 17.1275 11.3973 17.3398C11.4384 17.5522 11.5549 17.7426 11.7252 17.876L13.3132 19.118C13.274 19.4104 13.2529 19.705 13.2502 20V20Z"
    stroke="currentColor" stroke-width="1.5" stroke-linecap="round" stroke-linejoin="round" />
</svg>
