<svg viewBox="0 0 24 24" xmlns="http://www.w3.org/2000/svg">
  <path
    d="M3.4289 20.4517L3.42888 20.4517L3.42159 20.454C3.32642 20.4839 3.27323 20.4545 3.25314 20.4359C3.24161 20.4253 3.23248 20.4114 3.2273 20.3922C3.22238 20.374 3.2182 20.3401 3.23227 20.2871L3.89726 18.0605C4.04309 17.6384 4.0265 17.1581 3.78519 16.756C2.96241 15.2385 2.50146 13.5912 2.50146 12.0076C2.50146 6.99836 6.50475 2.49255 12.0215 2.49255C17.4136 2.49255 21.5015 6.91381 21.5015 11.9775C21.5015 17.8427 16.7249 21.4926 12.0015 21.4926C10.4424 21.4926 8.71318 21.0718 7.33844 20.2617C6.84281 19.96 6.22858 19.5984 5.44274 19.8526L3.4289 20.4517ZM11.9744 13.7995V13.7995H11.9815C12.9708 13.7995 13.7615 12.9915 13.7615 12.0176C13.7615 11.0323 12.9702 10.2376 11.985 10.2357C11.0028 10.2236 10.2015 11.0337 10.2015 12.0076C10.2015 12.9954 10.9944 13.7856 11.9744 13.7995ZM7.37146 13.7995V13.7996L7.37852 13.7995C8.35596 13.7857 9.15146 12.9979 9.15146 12.0176C9.15146 11.0311 8.35831 10.2357 7.37146 10.2357C6.38461 10.2357 5.59146 11.0311 5.59146 12.0176C5.59146 12.9941 6.39462 13.7995 7.37146 13.7995ZM16.5915 10.2357C15.6046 10.2357 14.8115 11.0311 14.8115 12.0176C14.8115 12.9915 15.6021 13.7995 16.5915 13.7995C17.5809 13.7995 18.3715 12.9915 18.3715 12.0176C18.3715 11.0311 17.5783 10.2357 16.5915 10.2357Z"
    fill="#000" />
</svg>
