<svg viewBox="0 0 46 39" xmlns="http://www.w3.org/2000/svg">
  <path
    d="M40.6234 11.1009C40.6234 10.6742 40.6153 10.2522 40.5966 9.8332C42.4101 8.4739 43.9837 6.77235 45.2282 4.82525C43.5381 5.5902 41.7396 6.08513 39.8978 6.29216C41.8148 5.10555 43.2849 3.2078 43.9796 0.930404C42.1847 2.02537 40.1993 2.80817 38.0883 3.21607C36.3968 1.28012 33.9831 0.0470502 31.3147 0.00122939C26.1899 -0.0839924 22.0356 4.27219 22.0356 9.72976C22.0356 10.5055 22.1162 11.2578 22.2763 11.9843C14.5591 11.4847 7.72064 7.44418 3.14627 1.35298C2.3481 2.81235 1.89017 4.51791 1.89017 6.34568C1.89017 9.8027 3.52841 12.8753 6.01755 14.6884C4.49372 14.619 3.06626 14.1548 1.81422 13.3937V13.5206C1.81422 18.3522 5.01379 22.4004 9.25924 23.3449C8.48093 23.5676 7.66001 23.6835 6.81573 23.6793C6.22912 23.6763 5.64442 23.6119 5.07107 23.4871C6.25074 27.4466 9.67927 30.3393 13.7383 30.4357C10.5615 33.0852 6.5598 34.6678 2.21511 34.6567C1.46599 34.6567 0.725738 34.6062 0 34.5145C4.10815 37.3491 8.98464 39 14.2268 39C31.2913 39.0041 40.6234 24.0637 40.6234 11.1009V11.1009Z" />
</svg>
