<svg viewBox="0 0 14 16" fill="none" xmlns="http://www.w3.org/2000/svg">
  <path
    d="M12 0H2C0.875 0 0 0.90625 0 2V11.5C0 12.25 0.375 12.9062 1 13.25V15C1 15.5625 1.4375 16 2 16H12C12.5312 16 13 15.5625 13 15V13.25C13.5938 12.9062 14 12.25 14 11.5V2C14 0.90625 13.0938 0 12 0ZM11.5 14.5H2.5V13.5H11.5V14.5ZM12.5 11.5C12.5 11.7812 12.25 12 12 12H2C1.71875 12 1.5 11.7812 1.5 11.5V2C1.5 1.75 1.71875 1.5 2 1.5H12C12.25 1.5 12.5 1.75 12.5 2V11.5ZM10.5 2.5H3.5C2.9375 2.5 2.5 2.96875 2.5 3.5V6.5C2.5 7.0625 2.9375 7.5 3.5 7.5H10.5C11.0312 7.5 11.4688 7.0625 11.4688 6.5L11.5 3.5C11.5 2.96875 11.0312 2.5 10.5 2.5ZM3.75 9.5C3.3125 9.5 3 9.84375 3 10.25C3 10.6875 3.3125 11 3.75 11C4.15625 11 4.5 10.6875 4.5 10.25C4.5 9.84375 4.15625 9.5 3.75 9.5ZM11 9.5H7C6.71875 9.5 6.5 9.75 6.5 10C6.5 10.2812 6.71875 10.5 7 10.5H11C11.25 10.5 11.5 10.2812 11.5 10C11.5 9.75 11.25 9.5 11 9.5Z"
    fill="#68778D" />
</svg>
