<svg viewBox="0 0 160 160" fill="none" xmlns="http://www.w3.org/2000/svg">
  <circle cx="80" cy="80" r="80" fill="#3B99FC" />
  <path fill-rule="evenodd" clip-rule="evenodd"
    d="M111.496 59.6922C94.1014 42.3249 65.8984 42.3249 48.5034 59.6922L46.2056 61.9864C45.3358 62.8547 45.3358 64.2626 46.2056 65.131L53.3671 72.2811C53.8019 72.7153 54.507 72.7153 54.9419 72.2811L58.0271 69.2008C70.1624 57.0849 89.8374 57.0849 101.973 69.2008L104.854 72.0771C105.288 72.5113 105.994 72.5113 106.428 72.0771L113.59 64.927C114.46 64.0586 114.46 62.6507 113.59 61.7824L111.496 59.6922ZM132.681 80.843L126.307 74.4794C125.437 73.611 124.027 73.611 123.157 74.4794L102.76 94.8446C102.542 95.0616 102.19 95.0616 101.972 94.8446L81.5744 74.479L81.5743 74.4789C80.7046 73.6106 79.2944 73.6106 78.4247 74.479L58.0277 94.8446C57.8102 95.0617 57.4577 95.0617 57.2403 94.8446L36.8422 74.479C35.9725 73.6106 34.5623 73.6106 33.6926 74.479L27.3188 80.8426C26.4491 81.711 26.4491 83.1189 27.3188 83.9873L56.0594 112.682C56.9291 113.55 58.3393 113.55 59.209 112.682L79.6063 92.3168C79.8238 92.0997 80.1763 92.0997 80.3937 92.3168L100.791 112.682C101.661 113.55 103.071 113.55 103.941 112.682L132.681 83.9876C133.551 83.1193 133.551 81.7114 132.681 80.843Z"
    fill="white" />
</svg>
